<svg width="753" height="905" viewBox="0 0 753 905" fill="none" xmlns="http://www.w3.org/2000/svg">
<path d="M908.496 841.114C1022.07 777.979 1090.71 618.093 1071.92 477.065C1053.94 335.217 948.534 212.228 834.958 122.035C721.381 32.6631 598.817 -24.732 511.388 10.525C423.141 44.962 370.03 172.051 287.503 262.243C204.976 351.616 93.0343 404.911 39.1059 512.322C-15.6395 619.733 -10.7369 781.259 71.7898 844.394C154.316 907.528 315.284 872.271 475.435 871.451C635.586 870.631 794.92 904.249 908.496 841.114Z" fill="#FAE01A"/>
<path fill-rule="evenodd" clip-rule="evenodd" d="M1066.59 515.371C1066.15 510.425 1065.6 505.497 1064.95 500.593L1064.95 500.581L1064.95 500.568C1064.3 495.453 1063.54 490.362 1062.66 485.295L1066.6 484.615C1067.49 489.739 1068.26 494.89 1068.92 500.065C1069.58 505.027 1070.13 510.012 1070.58 515.016L1066.59 515.371ZM1071.99 545.063L1067.99 545.087C1068.05 554.984 1067.72 564.914 1066.99 574.841L1070.98 575.131C1071.71 565.102 1072.05 555.066 1071.99 545.063ZM1067.67 605.034C1066.19 614.95 1064.34 624.821 1062.14 634.608L1058.24 633.731C1060.42 624.037 1062.25 614.263 1063.71 604.445L1067.67 605.034ZM1054.48 663.704L1050.65 662.547C1047.77 672.078 1044.55 681.488 1041.01 690.738L1044.74 692.17C1048.32 682.83 1051.57 673.328 1054.48 663.704ZM1032.94 719.845L1029.32 718.14C1025.07 727.168 1020.49 735.991 1015.61 744.566L1019.09 746.544C1024.02 737.878 1028.64 728.965 1032.94 719.845ZM1003.16 772.074L999.857 769.819C994.221 778.075 988.279 786.027 982.048 793.631L985.142 796.166C991.449 788.47 997.461 780.424 1003.16 772.074ZM965.011 818.507L962.172 815.689C955.138 822.776 947.813 829.442 940.217 835.641L942.746 838.74C950.455 832.45 957.882 825.689 965.011 818.507ZM918.407 856.402L916.251 853.032C912.084 855.698 907.85 858.229 903.553 860.618C899.054 863.119 894.48 865.466 889.834 867.669L891.547 871.283C896.269 869.045 900.92 866.658 905.496 864.114C909.867 861.684 914.171 859.111 918.407 856.402ZM862.457 882.975L861.181 879.183C851.501 882.439 841.559 885.198 831.376 887.523L832.267 891.423C842.568 889.071 852.639 886.277 862.457 882.975ZM801.417 897.113L800.845 893.154C790.732 894.615 780.421 895.737 769.93 896.576L770.249 900.563C780.814 899.718 791.21 898.587 801.417 897.113ZM738.928 902.267L738.804 898.269C728.529 898.59 718.112 898.703 707.567 898.656L707.549 902.656C718.134 902.704 728.599 902.59 738.928 902.267ZM676.187 902.101L676.304 898.102C665.972 897.8 655.54 897.392 645.021 896.922L644.842 900.918C655.376 901.389 665.829 901.797 676.187 902.101ZM613.508 899.385L613.715 895.39C609.226 895.158 604.72 894.921 600.202 894.684C594.279 894.373 588.334 894.061 582.381 893.755L582.176 897.75C588.13 898.056 594.068 898.367 599.987 898.678C604.505 898.915 609.012 899.152 613.508 899.385ZM550.839 896.242L551.013 892.246C540.579 891.79 530.105 891.389 519.604 891.082L519.487 895.08C529.964 895.387 540.419 895.787 550.839 896.242ZM488.121 894.477C482.894 894.435 477.665 894.425 472.435 894.451C467.541 894.476 462.646 894.534 457.753 894.619L457.683 890.62C462.592 890.534 467.503 890.477 472.415 890.451C477.663 890.425 482.91 890.435 488.153 890.477L488.121 894.477ZM428.396 895.444C418.586 895.814 408.801 896.268 399.058 896.775L398.85 892.781C408.607 892.273 418.413 891.818 428.246 891.447L428.396 895.444ZM369.736 898.44L369.494 894.448C361.051 894.958 352.655 895.486 344.324 896.01C342.938 896.097 341.555 896.184 340.173 896.271L340.424 900.263C341.806 900.176 343.191 900.089 344.577 900.002C352.908 899.478 361.298 898.951 369.736 898.44ZM311.112 902.057L310.879 898.063C300.995 898.641 291.23 899.171 281.603 899.617L281.788 903.613C291.436 903.165 301.218 902.634 311.112 902.057ZM252.427 904.687L252.327 900.688C242.381 900.939 232.624 901.05 223.079 900.979L223.049 904.979C232.645 905.051 242.446 904.938 252.427 904.687ZM193.701 904.1L193.922 900.106C183.956 899.555 174.287 898.727 164.948 897.566L164.455 901.536C173.897 902.71 183.658 903.545 193.701 904.1ZM135.519 896.582L136.396 892.68C126.69 890.499 117.464 887.818 108.76 884.561L107.358 888.307C116.256 891.637 125.66 894.367 135.519 896.582ZM80.9166 875.645L82.9849 872.221C78.8956 869.751 74.972 867.087 71.2202 864.217C67.4062 861.299 63.7601 858.162 60.2801 854.82L57.5097 857.706C61.0944 861.148 64.8538 864.383 68.7898 867.394C72.6621 870.356 76.7071 873.102 80.9166 875.645ZM38.3138 835.035L41.6031 832.759C36.2011 824.953 31.3928 816.508 27.1703 807.533L23.5508 809.235C27.8595 818.394 32.776 827.032 38.3138 835.035ZM12.804 781.501L16.6206 780.304C13.7515 771.157 11.3794 761.654 9.49621 751.882L5.56848 752.639C7.47844 762.55 9.88671 772.201 12.804 781.501ZM1.41144 723.191L5.39446 722.823C4.50169 713.164 4.04044 703.347 4.00266 693.448L0.00268555 693.464C0.0409034 703.476 0.507457 713.411 1.41144 723.191ZM1.12728 663.734L5.11487 664.049C5.88583 654.284 7.054 644.518 8.61095 634.822L4.66154 634.188C3.08763 643.99 1.9067 653.862 1.12728 663.734ZM10.5651 605.022L14.4498 605.976C16.8024 596.39 19.5428 586.952 22.6616 577.738L18.8727 576.455C15.7163 585.781 12.9441 595.328 10.5651 605.022ZM58.9215 497.341L62.192 499.644C67.8183 491.654 73.7845 483.962 80.0401 476.513L76.977 473.941C70.6548 481.469 64.6184 489.251 58.9215 497.341ZM96.794 452.014L99.6695 454.795C106.445 447.787 113.458 440.969 120.656 434.284L117.934 431.353C110.691 438.079 103.627 444.948 96.794 452.014ZM139.996 411.676L142.606 414.707C150.016 408.325 157.554 402.024 165.172 395.747L162.629 392.66C154.997 398.948 147.435 405.269 139.996 411.676ZM185.533 373.965L188.055 377.07C195.683 370.872 203.342 364.645 210.973 358.346L208.427 355.261C200.809 361.549 193.161 367.767 185.533 373.965ZM231.042 336.222L233.655 339.251C241.131 332.802 248.537 326.227 255.822 319.478L253.104 316.543C245.86 323.255 238.49 329.798 231.042 336.222ZM311.987 252.758L315.126 255.237C321.011 247.785 326.764 240.21 332.411 232.572L329.194 230.194C323.568 237.805 317.841 245.346 311.987 252.758ZM345.815 207.193L349.078 209.507C354.583 201.745 360.014 193.973 365.395 186.257L362.114 183.969C356.733 191.683 351.31 199.445 345.815 207.193ZM378.382 160.708L381.652 163.012C387.155 155.201 392.636 147.515 398.133 140.013L394.906 137.648C389.39 145.178 383.893 152.886 378.382 160.708ZM412.048 115.026L415.189 117.503C421.128 109.971 427.117 102.733 433.195 95.8636L430.199 93.213C424.062 100.149 418.025 107.447 412.048 115.026ZM449.824 72.7343L452.584 75.6295C459.501 69.0353 466.565 62.9915 473.827 57.593L471.441 54.3828C464.029 59.8925 456.841 66.0449 449.824 72.7343ZM551.642 23.5635L551.964 27.5505C561.36 26.7916 571.049 26.8254 580.993 27.6023L581.305 23.6144C571.169 22.8226 561.267 22.786 551.642 23.5635ZM610.684 27.8449L609.878 31.7628C619.176 33.6765 628.641 36.1461 638.243 39.1329L639.431 35.3135C629.714 32.291 620.122 29.7875 610.684 27.8449ZM667.384 45.2755L665.898 48.9896C674.808 52.5519 683.802 56.5068 692.859 60.8245L694.581 57.2138C685.452 52.8619 676.379 48.8721 667.384 45.2755ZM721.024 70.7303L719.11 74.2432C727.614 78.8744 736.15 83.7923 744.701 88.9723L746.774 85.5511C738.174 80.3412 729.584 75.3926 721.024 70.7303ZM771.848 101.449L769.641 104.785C777.768 110.164 785.892 115.756 793.996 121.541L796.32 118.286C788.179 112.474 780.017 106.855 771.848 101.449ZM820.216 135.936L817.79 139.116C821.692 142.094 825.586 145.112 829.47 148.168C833.518 151.382 837.554 154.638 841.577 157.935L844.113 154.841C840.074 151.531 836.021 148.262 831.958 145.035C828.054 141.964 824.14 138.93 820.216 135.936ZM867.956 175.025L865.323 178.036C873.103 184.842 880.8 191.802 888.386 198.91L891.121 195.991C883.501 188.85 875.77 181.86 867.956 175.025ZM913.53 217.764L910.69 220.58C917.987 227.938 925.146 235.438 932.142 243.074L935.091 240.372C928.059 232.695 920.862 225.157 913.53 217.764ZM955.702 263.852L952.639 266.425C959.314 274.372 965.795 282.452 972.055 290.66L975.236 288.234C968.936 279.974 962.415 271.845 955.702 263.852ZM993.544 313.544L990.243 315.803C996.105 324.37 1001.71 333.064 1007.04 341.877L1010.46 339.809C1005.1 330.928 999.447 322.171 993.544 313.544ZM1025.79 367.031L1022.24 368.882C1027.04 378.07 1031.51 387.376 1035.64 396.794L1039.3 395.19C1035.14 385.684 1030.63 376.296 1025.79 367.031ZM1050.77 424.243C1054.23 434.082 1057.3 444.035 1059.95 454.098L1056.08 455.116C1053.46 445.161 1050.43 435.311 1047 425.57L1050.77 424.243ZM522.434 28.7316L523.521 32.581C518.882 33.8912 514.334 35.4398 509.883 37.2347L509.863 37.2431L509.842 37.2513C505.577 38.9154 501.392 40.8045 497.278 42.9047L495.459 39.342C499.687 37.184 503.994 35.2396 508.388 33.525C512.975 31.675 517.659 30.0801 522.434 28.7316ZM293.929 274.645L296.954 277.262C293.831 280.871 290.665 284.434 287.454 287.944L287.448 287.95L287.442 287.957C284.064 291.615 280.638 295.212 277.171 298.753L274.313 295.955C277.754 292.44 281.153 288.871 284.503 285.243C287.688 281.763 290.829 278.228 293.929 274.645ZM43.0816 522.279L46.5594 524.255C44.1725 528.456 41.8776 532.741 39.6807 537.117L39.6752 537.128L39.6697 537.138C37.4665 541.461 35.3601 545.875 33.3522 550.37L29.7001 548.738C31.7351 544.183 33.8708 539.707 36.1059 535.322C38.3342 530.884 40.6614 526.538 43.0816 522.279Z" fill="#DDC300"/>
</svg>
