<svg width="311" height="440" viewBox="0 0 311 440" fill="none" xmlns="http://www.w3.org/2000/svg">
<path d="M227.748 20.3967C284.536 51.8924 318.854 131.654 309.458 202.008C300.47 272.771 247.767 334.127 190.979 379.121C134.191 423.705 72.9083 452.338 29.1937 434.749C-14.9295 417.57 -41.4851 354.169 -82.7485 309.176C-124.012 264.591 -179.983 238.003 -206.947 184.42C-234.32 130.836 -231.869 50.2563 -190.605 18.7605C-149.342 -12.7352 -68.8578 4.85333 11.2176 5.26237C91.293 5.6714 170.96 -11.099 227.748 20.3967Z" fill="#98DBD7"/>
<path d="M219.495 31.9596C272.363 61.2363 304.312 135.379 295.564 200.776C287.197 266.553 238.132 323.586 185.264 365.41C132.396 406.854 75.3438 433.469 34.6467 417.119C-6.43065 401.15 -31.1532 342.217 -69.5681 300.393C-107.983 258.949 -160.09 234.235 -185.193 184.427C-210.676 134.618 -208.394 59.7155 -169.979 30.4388C-131.564 1.16208 -56.6363 17.5114 17.9115 17.8916C92.4593 18.2718 166.627 2.68294 219.495 31.9596Z" fill="#03A2A6"/>
<circle cx="72" cy="370" r="33" fill="#95D8E0"/>
</svg>
